<?xml version="1.0" encoding="UTF-8" standalone="no"?>
<svg
   version="1.1"
   id="svg10"
   width="286.91696"
   height="197.83356"
   viewBox="0 0 286.91696 197.83356"
   sodipodi:docname="logoEmpresa.svg"
   inkscape:version="1.1 (c68e22c387, 2021-05-23)"
   inkscape:export-filename="D:\QtProjects\monitoreo_xertek\img\logoEmpresa.png"
   inkscape:export-xdpi="342.59103"
   inkscape:export-ydpi="342.59103"
   xmlns:inkscape="http://www.inkscape.org/namespaces/inkscape"
   xmlns:sodipodi="http://sodipodi.sourceforge.net/DTD/sodipodi-0.dtd"
   xmlns="http://www.w3.org/2000/svg"
   xmlns:svg="http://www.w3.org/2000/svg"
   xmlns:rdf="http://www.w3.org/1999/02/22-rdf-syntax-ns#"
   xmlns:cc="http://creativecommons.org/ns#"
   xmlns:dc="http://purl.org/dc/elements/1.1/">
  <metadata
     id="metadata16">
    <rdf:RDF>
      <cc:Work
         rdf:about="">
        <dc:format>image/svg+xml</dc:format>
        <dc:type
           rdf:resource="http://purl.org/dc/dcmitype/StillImage" />
      </cc:Work>
    </rdf:RDF>
  </metadata>
  <defs
     id="defs14" />
  <sodipodi:namedview
     pagecolor="#ffffff"
     bordercolor="#666666"
     borderopacity="1"
     objecttolerance="10"
     gridtolerance="10"
     guidetolerance="10"
     inkscape:pageopacity="0"
     inkscape:pageshadow="2"
     inkscape:window-width="1366"
     inkscape:window-height="705"
     id="namedview12"
     showgrid="false"
     inkscape:zoom="1.2203792"
     inkscape:cx="220.833"
     inkscape:cy="144.21747"
     inkscape:window-x="-8"
     inkscape:window-y="-8"
     inkscape:window-maximized="1"
     inkscape:current-layer="g18"
     inkscape:document-rotation="0"
     inkscape:snap-global="true"
     showborder="false"
     inkscape:pagecheckerboard="0" />
  <g
     inkscape:groupmode="layer"
     inkscape:label="Image"
     id="g18"
     transform="translate(-5.0782388,-3.4434953)">
    <g
       id="g22"
       transform="translate(76.899918,-1.9801406)"
       style="fill:#333333"
       inkscape:export-filename="D:\QtProjects\SW_QCalculator\img\logoEmpresa.png"
       inkscape:export-xdpi="18.737129"
       inkscape:export-ydpi="18.737129">
      <path
         style="fill:#333333;fill-opacity:1"
         d="m 45.155342,202.97483 c 0,-0.57792 1.56593,-3.10225 3.47985,-5.60962 8.43597,-11.05172 11.34229,-25.82813 6.48408,-32.96652 -4.99673,-7.34193 -15.58021,-8.06191 -29.46393,-2.00441 -8.959039,3.90885 -11.215829,5.16895 -27.016277,15.08486 -12.914321,8.10466 -18.638457,9.79482 -32.983723,9.73904 -10.171172,-0.0395 -13.326168,-0.46085 -20.701755,-2.76441 -4.785965,-1.49477 -8.941218,-3.10522 -9.233895,-3.57878 -0.292677,-0.47356 3.398112,-1.10371 8.201755,-1.40034 8.790248,-0.5428 10.365544,-0.74996 19.997376,-2.62983 20.090739,-3.92117 44.805014,-23.73735 56.873392,-45.60171 1.509477,-2.73473 3.011047,-5.19724 3.336817,-5.47224 0.32577,-0.275 2.26471,-2.80995 4.30875,-5.63322 2.04405,-2.82328 4.52455,-5.34455 5.51221,-5.60283 1.44496,-0.37786 0.95669,1.20226 -2.49944,8.08869 -5.20827,10.37759 -5.83112,14.91072 -1.04521,7.60709 3.40568,-5.1973 17.51077,-19.4323 19.27216,-19.44966 0.56218,-0.006 2.58718,-1.28148 4.5,-2.83542 1.91281,-1.55394 4.29386,-3.12576 5.29122,-3.49294 3.36471,-1.2387 0.6043,-2.93254 -3.9437,-2.41991 -2.40332,0.27089 -4.36661,0.2103 -4.36285,-0.13464 0.0144,-1.31955 7.23523,-5.463251 13.45368,-7.720426 3.56962,-1.295703 10.09005,-2.656038 14.48983,-3.022966 7.28669,-0.607686 8.1578,-0.484112 9.77463,1.386608 1.88859,2.185136 9.61791,4.374126 22.275028,6.308418 5.61796,0.85856 8.0388,1.729276 9.64715,3.469876 1.18093,1.27804 2.40048,2.07037 2.71011,1.76073 0.76426,-0.76426 -1.82608,-5.62367 -3.92733,-7.367549 -0.93607,-0.776868 -2.72943,-3.040139 -3.98526,-5.029491 -2.67604,-4.239133 -10.35501,-9.617308 -14.96694,-10.482511 -2.141568,-0.401762 -4.374158,-0.01705 -6.606248,1.138371 -2.55239,1.321222 -6.40832,1.822231 -15.87148,2.062212 -6.875,0.174346 -15.59462,0.976267 -19.37693,1.782046 -9.88465,2.105813 -21.77079,7.166146 -26.65754,11.349023 -3.16312,2.707509 -4.07307,3.126479 -3.63723,1.674693 3.40594,-11.34517 3.28489,-23.000884 -0.32359,-31.158442 -1.10259,-2.492592 -2.00471,-5.323502 -2.00471,-6.290913 0,-4.821823 15.50587,-22.611471 23.15756,-26.568313 4.09502,-2.117614 6.92841,-0.838571 9.38796,4.237889 1.51824,3.133633 1.93913,3.47534 2.27859,1.849948 0.59699,-2.858412 -0.43863,-21.675262 -1.30748,-23.756359 -1.1179,-2.677668 -3.96825,-2.133358 -12.86393,2.45653 -15.06128,7.771137 -30.6527,26.203043 -30.6527,36.237086 0,2.370281 1.893543,7.262458 5.636118,14.561534 5.211882,10.164634 5.587802,11.349663 4.994252,15.743434 -0.7693,5.694689 -3.07825,9.142432 -7.701455,11.499862 -9.588601,4.88934 -23.165595,-0.831421 -28.912454,-12.182476 -1.904353,-3.761432 -2.229241,-5.929605 -2.141789,-14.293467 0.09056,-8.661089 -0.08672,-9.753216 -1.458551,-8.9855 -4.202038,2.351579 -15.946434,15.271273 -19.631361,21.595931 -2.280633,3.914386 -4.677994,7.792066 -5.327468,8.617066 -0.649475,0.825 -2.251724,4.65 -3.560553,8.499996 -1.30883,3.85 -2.475543,7.16702 -2.592696,7.37115 -0.117153,0.20413 -2.820989,-1.08037 -6.008524,-2.85445 -5.552471,-3.09032 -14.295519,-10.56699 -14.295519,-12.224904 0,-0.435486 3.825,-0.791792 8.5,-0.791792 4.700925,0 8.5,-0.424543 8.5,-0.949868 0,-0.522427 -1.35,-2.950188 -3,-5.395025 -1.65,-2.444836 -3,-4.608138 -3,-4.807337 0,-0.1992 2.035503,-0.200292 4.52334,-0.0024 2.487837,0.197866 5.61074,0.08684 6.939784,-0.246733 l 2.416444,-0.606489 -2.427739,-4.246061 c -2.38424,-4.170009 -3.181129,-7.780544 -1.701829,-7.710652 0.4125,0.01949 1.875,0.678544 3.25,1.464565 2.783959,1.591455 7,1.972918 7,0.633353 0,-0.476656 -0.964401,-3.187255 -2.143114,-6.023553 -1.178712,-2.836299 -1.872381,-5.427638 -1.541487,-5.758533 0.330895,-0.330894 2.406927,0.120712 4.613405,1.003569 5.183672,2.074095 7.297091,1.369511 6.014098,-2.005014 -0.518596,-1.364012 -0.942902,-4.043938 -0.942902,-5.955391 v -3.475369 l 2.739782,2.540469 c 3.749269,3.476518 5.260218,3.243765 5.260218,-0.810308 0,-1.842927 0.499996,-4.785065 1.111101,-6.538084 l 1.111102,-3.187308 3.206757,3.709671 c 3.212553,3.716376 5.807817,3.987938 4.899001,0.512621 -0.504652,-1.929792 1.347771,-10.146123 2.287506,-10.146123 0.296109,0 1.888379,1.35 3.538379,3 1.65,1.65 3.586963,3 4.304362,3 0.717399,0 1.814263,-2.025 2.437475,-4.5 1.253866,-4.979552 2.01632,-5.471808 3.872244,-2.5 1.651405,2.64432 3.391586,2.52356 6.164212,-0.427765 1.254422,-1.335271 3.174913,-2.400261 3.174913,-2.400261 4.021877,-3.487007 3.238275,-3.409602 8.392948,-6.758406 3.38652,-2.838474 28.0862,-15.4135682 30.27494,-15.4135682 0.78254,0 2.84081,-0.6302653 4.57393,-1.4005895 4.81009,-2.1379514 7.46983,-2.5142588 8.00029,-1.1319036 0.26308,0.6855695 0.80018,5.3608413 1.19356,10.3894913 0.39339,5.028651 1.04652,9.143002 1.45141,9.143002 0.65942,0 5.74377,-3.60774 7.00587,-4.97121 2.00805,-2.169333 12.19596,-9.025715 12.82951,-8.63416 1.35849,0.839597 1.24886,8.717979 -0.25891,18.60537 -0.79679,5.225 -1.13863,9.768108 -0.75965,10.095797 0.37898,0.327688 4.89544,2.038355 10.03659,3.801482 5.141138,1.763127 14.035498,5.258762 19.765248,7.768078 12.91748,5.657155 16.3185,9.215326 24.21573,25.334643 4.35978,8.898905 6.99544,12.87944 11.6528,17.5988 5.55763,5.631606 6.78471,6.349486 16.01868,9.371416 5.5,1.79994 13.825,4.33111 18.5,5.62483 11.56842,3.20133 25.12617,8.57018 25.7505,10.19714 0.93568,2.43836 -1.661,6.1951 -6.32777,9.15468 -2.88198,1.8277 -5.35827,4.43687 -6.6078,6.96239 -1.09915,2.22157 -6.11966,8.27236 -11.15669,13.44618 -8.67743,8.9131 -9.46859,9.47118 -15.06961,10.63016 -4.37303,0.90488 -9.05722,0.9715 -18,0.25599 -17.96838,-1.43765 -32.80797,-0.0208 -52.08863,4.97318 -8.042288,2.08309 -20.751028,7.4893 -25.612878,10.89554 -2.395877,0.5274 -3.551886,2.1331 -5.19856,2.88969 -0.72129,0 -2.18379,0.80325 -3.25,1.78499 -1.06621,0.98174 -2.96773,2.49829 -4.22561,3.3701 -1.25788,0.87181 -4.77671,3.78107 -7.81963,6.46501 -12.94297,11.4161 -14.39332,12.58335 -14.39332,11.58386 z m -106.25,-35.94845 c -2.628026,-0.60393 -2.106729,-3.01886 1,-4.63253 1.5125,-0.7856 5,-3.51656 7.75,-6.06878 4.999375,-4.63983 4.999625,-4.64038 2,-4.42534 -7.201609,0.5163 -19.346215,-3.34622 -16.395622,-5.21453 0.767592,-0.48604 2.842855,-0.8906 4.611695,-0.89902 3.404957,-0.0162 10.283927,-2.82596 10.283927,-4.20052 0,-0.44814 -0.917927,-0.81479 -2.039838,-0.81479 -2.852687,0 -8.998985,-3.31128 -11.884476,-6.40268 l -2.424314,-2.59732 h 5.174314 c 5.456904,0 6.694124,-1.3182 2.924314,-3.11572 -5.436719,-2.59234 -11.685217,-14.91975 -11.726264,-23.13428 -0.01306,-2.6125 0.144393,-4.75 0.349883,-4.75 0.205491,0 2.342991,1.81317 4.75,4.02927 7.472124,6.87948 13.468776,9.19522 25.712817,9.92956 8.576756,0.51439 11.81246,1.16808 16.534407,3.34036 7.021019,3.22994 6.979956,3.2248 5.630905,0.70408 -1.17144,-2.18886 -6.992792,-5.58065 -14.001748,-8.15806 -5.581597,-2.05254 -6.12944,-4.49518 -2.69772,-12.028204 1.332206,-2.924351 2.760727,-6.442002 3.174491,-7.817002 0.812036,-2.698516 6.714584,-10.952928 10.72617,-15 1.362943,-1.375 2.982464,-3.4 3.598934,-4.5 0.877443,-1.565667 0.991989,-0.563362 0.527456,4.615385 -0.676825,7.545434 0.776643,15.052982 4.26107,22.009563 4.418075,8.820588 15.230139,13.440988 30.659599,13.101998 4.2625,-0.0936 7.73789,0.15447 7.7231,0.55139 -0.0148,0.39691 -1.3743,2.29666 -3.021123,4.22166 -1.646822,1.925 -6.900694,8.6488 -11.675272,14.94177 -8.253108,10.87773 -19.588097,23.05823 -21.457643,23.05823 -0.477446,0 -3.669553,1.76387 -7.093573,3.91972 -3.425065,2.1565 -9.374312,4.73609 -13.225489,5.73457 -3.85,0.99817 -7.225,2.09388 -7.5,2.43492 -0.596562,0.73981 -19.739432,1.74325 -22.25,1.1663 z"
         id="path24"
         sodipodi:nodetypes="ssssscsssssssssscsssssssssssssssssssssssssssssssssssssssssscscssssssssscssscssssssssccssssssssssssssssssssssccssssssssssssscssssssssssssssscssssssss" />
    </g>
    <text
       xml:space="preserve"
       style="font-style:normal;font-variant:normal;font-weight:300;font-stretch:normal;font-size:42.6667px;line-height:1.25;font-family:'Fira Code';-inkscape-font-specification:'Fira Code Light';fill:#333333;fill-opacity:1;stroke:none;stroke-width:1.03226"
       x="14.571117"
       y="223.52699"
       id="text2211"
       transform="scale(1.0322638,0.96874461)"
       inkscape:export-filename="D:\QtProjects\SW_QCalculator\img\logoEmpresa.png"
       inkscape:export-xdpi="18.737129"
       inkscape:export-ydpi="18.737129"><tspan
         sodipodi:role="line"
         id="tspan2209"
         x="14.571117"
         y="223.52699"
         style="font-size:42.6667px;stroke-width:1.03226;fill:#333333">SWSystem's</tspan></text>
    <text
       xml:space="preserve"
       style="font-style:normal;font-variant:normal;font-weight:normal;font-stretch:normal;font-size:10.6667px;line-height:1.25;font-family:'Fira Code';-inkscape-font-specification:'Fira Code';fill:#333333;fill-opacity:1;stroke:none"
       x="150.04523"
       y="227.50562"
       id="text1223"
       inkscape:export-filename="D:\QtProjects\SW_QCalculator\img\logoEmpresa.png"
       inkscape:export-xdpi="18.737129"
       inkscape:export-ydpi="18.737129"><tspan
         sodipodi:role="line"
         id="tspan1221"
         x="150.04523"
         y="227.50562">By: Lincoln Ingaroca</tspan></text>
  </g>
</svg>
